{
    "asset" : {
        "generator" : "Khronos glTF Blender I/O v3.4.50",
        "version" : "2.0"
    },
    "extensionsUsed" : [
        "KHR_materials_specular",
        "KHR_materials_ior"
    ],
    "scene" : 0,
    "scenes" : [
        {
            "name" : "Scene",
            "nodes" : [
                0
            ]
        }
    ],
    "nodes" : [
        {
            "mesh" : 0,
            "name" : "fac_unit_06",
            "rotation" : [
                0.7071065902709961,
                -0.0005404684925451875,
                -0.0005404683179222047,
                0.7071065306663513
            ],
            "scale" : [
                0.0064557213336229324,
                0.007564095314592123,
                0.00518557894974947
            ],
            "translation" : [
                -2.864668130874634,
                0.18935158848762512,
                -13.972664833068848
            ]
        }
    ],
    "materials" : [
        {
            "doubleSided" : true,
            "extensions" : {
                "KHR_materials_specular" : {
                    "specularColorFactor" : [
                        2.371357614441398,
                        2.371357614441398,
                        2.371357614441398
                    ]
                },
                "KHR_materials_ior" : {
                    "ior" : 1.4500000476837158
                }
            },
            "name" : "Material #2",
            "pbrMetallicRoughness" : {
                "metallicFactor" : 0,
                "roughnessFactor" : 0.5527864098548889
            }
        }
    ],
    "meshes" : [
        {
            "name" : "\u7f51\u683c.003",
            "primitives" : [
                {
                    "attributes" : {
                        "POSITION" : 0,
                        "TEXCOORD_0" : 1,
                        "NORMAL" : 2
                    },
                    "indices" : 3,
                    "material" : 0
                }
            ]
        }
    ],
    "accessors" : [
        {
            "bufferView" : 0,
            "componentType" : 5126,
            "count" : 40055,
            "max" : [
                680.0541381835938,
                17.4521484375,
                38.006431579589844
            ],
            "min" : [
                -444.9690856933594,
                -141.22630310058594,
                -99.13851165771484
            ],
            "type" : "VEC3"
        },
        {
            "bufferView" : 1,
            "componentType" : 5126,
            "count" : 40055,
            "type" : "VEC2"
        },
        {
            "bufferView" : 2,
            "componentType" : 5126,
            "count" : 40055,
            "type" : "VEC3"
        },
        {
            "bufferView" : 3,
            "componentType" : 5123,
            "count" : 117225,
            "type" : "SCALAR"
        }
    ],
    "bufferViews" : [
        {
            "buffer" : 0,
            "byteLength" : 480660,
            "byteOffset" : 0,
            "target" : 34962
        },
        {
            "buffer" : 0,
            "byteLength" : 320440,
            "byteOffset" : 480660,
            "target" : 34962
        },
        {
            "buffer" : 0,
            "byteLength" : 480660,
            "byteOffset" : 801100,
            "target" : 34962
        },
        {
            "buffer" : 0,
            "byteLength" : 234450,
            "byteOffset" : 1281760,
            "target" : 34963
        }
    ],
    "buffers" : [
        {
            "byteLength" : 1516212,
            "uri" : "data:application/octet-stream;base64,"
        }
    ]
}
